<svg data-v-423bf9ae="" xmlns="http://www.w3.org/2000/svg" viewBox="0 0 665 90" class="iconLeftSlogan"><!----><!----><!----><g data-v-423bf9ae="" id="075cea94-dfa7-4391-ac91-e12e37986325" fill="#000000" transform="matrix(5.6980053264473165,0,0,5.6980053264473165,98.8247312050014,-22.735042022120943)"><path d="M1.96 14.35L1.96 9.94L4.90 9.94C6.55 9.94 7.42 8.89 7.42 7.25C7.42 5.61 6.55 4.58 4.90 4.58L1.46 4.58L1.46 14.35ZM1.96 5.04L4.90 5.04C6.23 5.04 6.87 5.92 6.87 6.94L6.87 7.56C6.87 8.60 6.23 9.48 4.90 9.48L1.96 9.48ZM10.08 14.35L10.57 14.35L10.57 9.18C10.57 7.98 11.59 7.39 12.68 7.39C14.01 7.39 14.76 8.12 14.76 9.74L14.76 14.35L15.25 14.35L15.25 9.66C15.25 7.91 14.36 6.96 12.80 6.96C11.54 6.96 10.88 7.56 10.61 8.19L10.57 8.19L10.57 3.99L10.08 3.99ZM24.30 14.35L24.30 13.92L23.16 13.92L23.16 9.34C23.16 7.84 22.22 6.96 20.66 6.96C19.33 6.96 18.48 7.57 18.09 8.46L18.45 8.69C18.84 7.80 19.64 7.39 20.65 7.39C21.90 7.39 22.67 8.04 22.67 9.39L22.67 10.43L20.69 10.43C18.55 10.43 17.85 11.27 17.85 12.47C17.85 13.78 18.73 14.52 20.27 14.52C21.57 14.52 22.29 13.96 22.62 13.24L22.68 13.24L22.68 13.76C22.69 14.14 22.88 14.35 23.30 14.35ZM20.31 14.10C19.17 14.10 18.38 13.59 18.38 12.68L18.38 12.26C18.38 11.40 19.04 10.82 20.71 10.82L22.67 10.82L22.67 12.28C22.67 13.45 21.59 14.10 20.31 14.10ZM26.31 14.35L32.28 14.35L32.28 13.92L29.20 13.92L29.20 9.84C29.20 8.37 30.18 7.59 31.40 7.59L33.00 7.59L33.00 7.13L31.53 7.13C30.17 7.13 29.57 7.81 29.25 8.62L29.20 8.62L29.20 7.13L26.31 7.13L26.31 7.56L28.71 7.56L28.71 13.92L26.31 13.92ZM35.03 14.35L35.03 8.99C35.03 7.91 35.67 7.38 36.41 7.38C37.18 7.38 37.58 7.85 37.58 8.96L37.58 14.35L38.04 14.35L38.04 8.99C38.04 7.91 38.67 7.38 39.42 7.38C40.19 7.38 40.59 7.85 40.59 8.96L40.59 14.35L41.05 14.35L41.05 8.89C41.05 7.64 40.59 6.96 39.55 6.96C38.68 6.96 38.21 7.46 37.98 8.11L37.95 8.11C37.81 7.38 37.34 6.96 36.54 6.96C35.73 6.96 35.29 7.39 35.07 7.98L35.03 7.98L35.03 7.13L34.57 7.13L34.57 14.35ZM49.50 14.35L49.50 13.92L48.36 13.92L48.36 9.34C48.36 7.84 47.42 6.96 45.86 6.96C44.53 6.96 43.68 7.57 43.29 8.46L43.65 8.69C44.04 7.80 44.84 7.39 45.85 7.39C47.10 7.39 47.87 8.04 47.87 9.39L47.87 10.43L45.89 10.43C43.75 10.43 43.05 11.27 43.05 12.47C43.05 13.78 43.93 14.52 45.47 14.52C46.77 14.52 47.49 13.96 47.82 13.24L47.88 13.24L47.88 13.76C47.89 14.14 48.08 14.35 48.50 14.35ZM45.51 14.10C44.37 14.10 43.58 13.59 43.58 12.68L43.58 12.26C43.58 11.40 44.24 10.82 45.91 10.82L47.87 10.82L47.87 12.28C47.87 13.45 46.79 14.10 45.51 14.10ZM54.64 14.52C56.60 14.52 57.83 13.58 57.83 11.82C57.83 10.64 57.30 9.53 55.29 9.20L54.18 9.02C52.92 8.82 52.02 8.29 52.02 6.92C52.02 5.54 52.98 4.86 54.57 4.86C55.93 4.86 56.74 5.31 57.32 6.12L57.69 5.80C57.12 4.97 56.18 4.41 54.60 4.41C52.72 4.41 51.51 5.24 51.51 6.93C51.51 8.09 52.05 9.17 54.01 9.49L55.13 9.67C56.36 9.87 57.32 10.36 57.32 11.83C57.32 13.29 56.34 14.07 54.64 14.07C53.14 14.07 52.35 13.50 51.65 12.59L51.25 12.89C51.95 13.83 52.91 14.52 54.64 14.52ZM63.10 14.52C64.50 14.52 65.46 13.79 65.88 12.67L65.49 12.46C65.07 13.54 64.25 14.08 63.10 14.08C61.46 14.08 60.54 12.94 60.54 11.14L60.54 10.78L66.02 10.78L66.02 10.58C66.02 8.40 64.96 6.96 63.03 6.96C61.17 6.96 60.00 8.29 60.00 10.74C60.00 13.19 61.17 14.52 63.10 14.52ZM63.03 7.38C64.60 7.38 65.51 8.51 65.51 10.32L65.51 10.39L60.54 10.39L60.54 10.33C60.54 8.53 61.46 7.38 63.03 7.38ZM74.70 14.35L74.70 13.92L73.56 13.92L73.56 9.34C73.56 7.84 72.62 6.96 71.06 6.96C69.73 6.96 68.88 7.57 68.49 8.46L68.85 8.69C69.24 7.80 70.04 7.39 71.05 7.39C72.30 7.39 73.07 8.04 73.07 9.39L73.07 10.43L71.09 10.43C68.95 10.43 68.25 11.27 68.25 12.47C68.25 13.78 69.13 14.52 70.67 14.52C71.97 14.52 72.69 13.96 73.02 13.24L73.08 13.24L73.08 13.76C73.09 14.14 73.28 14.35 73.70 14.35ZM70.71 14.10C69.57 14.10 68.78 13.59 68.78 12.68L68.78 12.26C68.78 11.40 69.44 10.82 71.11 10.82L73.07 10.82L73.07 12.28C73.07 13.45 71.99 14.10 70.71 14.10ZM76.71 14.35L82.68 14.35L82.68 13.92L79.60 13.92L79.60 9.84C79.60 8.37 80.58 7.59 81.80 7.59L83.40 7.59L83.40 7.13L81.93 7.13C80.57 7.13 79.97 7.81 79.65 8.62L79.60 8.62L79.60 7.13L76.71 7.13L76.71 7.56L79.11 7.56L79.11 13.92L76.71 13.92ZM88.49 14.52C89.82 14.52 90.71 13.79 91.08 12.91L90.71 12.68C90.31 13.54 89.59 14.08 88.49 14.08C86.88 14.08 85.99 12.94 85.99 11.14L85.99 10.33C85.99 8.54 86.88 7.39 88.49 7.39C89.52 7.39 90.24 7.87 90.57 8.72L90.99 8.55C90.64 7.62 89.78 6.96 88.49 6.96C86.59 6.96 85.46 8.29 85.46 10.74C85.46 13.19 86.58 14.52 88.49 14.52ZM94.08 14.35L94.57 14.35L94.57 9.18C94.57 7.98 95.59 7.39 96.68 7.39C98.01 7.39 98.76 8.12 98.76 9.74L98.76 14.35L99.25 14.35L99.25 9.66C99.25 7.91 98.36 6.96 96.80 6.96C95.54 6.96 94.88 7.56 94.61 8.19L94.57 8.19L94.57 3.99L94.08 3.99Z"></path></g><defs data-v-423bf9ae=""><linearGradient data-v-423bf9ae="" gradientTransform="rotate(25)" id="36296472-142d-446b-aa97-89fafda16a0a" x1="0%" y1="0%" x2="100%" y2="0%"><stop data-v-423bf9ae="" offset="0%" style="stop-color: rgb(13, 124, 233); stop-opacity: 1;"></stop><stop data-v-423bf9ae="" offset="100%" style="stop-color: rgb(21, 207, 241); stop-opacity: 1;"></stop></linearGradient></defs><g data-v-423bf9ae="" id="04209847-d1f3-4305-ae14-773c93d26504" transform="matrix(1.4285814627662345,0,0,1.4285814627662345,-26.9291407117624,-25.928757061175347)" stroke="none" fill="url(#36296472-142d-446b-aa97-89fafda16a0a)"><path d="M64.974 78.666c3.354-2.641 6.58-6.728 9.164-11.202 2.555-4.421 4.467-9.227 5.07-13.437.467-3.721-.09-7.961-3.243-9.85-3.78-1.73-7.347-.03-10.14 2.14-3.347 2.628-6.58 6.656-9.134 11.077-2.585 4.474-4.49 9.308-5.102 13.531-.462 3.71.074 8 3.212 9.88 3.803 1.683 7.366.048 10.173-2.139zm-9.165.41c-2.605-1.9-2.606-5.209-2.236-7.868.517-3.563 2.13-7.83 4.346-11.863l13.952 8.056c-2.387 3.932-5.297 7.464-8.125 9.692-2.439 1.853-5.152 3.119-7.937 1.982zm-25.226-8.371l21.479-5.759a42.33 42.33 0 0 1 .913-2.328L42.74 65.355l-3.15-11.674 10.708-2.864c3.226-.863 6.322.318 7.747 2.58.41-.592.798-1.166 1.229-1.73-2.065-2.592-5.799-3.755-9.48-2.77l-23.368 6.231c-4.771 1.278-7.848 5.764-6.677 10.133 1.501 4.71 5.501 6.714 10.834 5.444zm-8.881-5.947c-.852-3.176 1.37-6.646 5.228-7.679l10.708-2.863 3.149 11.674-10.708 2.864c-3.829 1.217-7.829-.788-8.377-3.996zm51.177.88l-13.952-8.055c2.37-3.923 5.278-7.457 8.125-9.692 2.29-1.694 5.395-3.38 7.905-1.983 2.484 2.058 2.634 5.172 2.268 7.835-.972 4.386-2.54 8.578-4.346 11.896zm-27.652-16.93c6.111 0 11.086-4.97 11.086-11.076 0-6.105-4.975-11.076-11.086-11.076-6.11 0-11.085 4.97-11.085 11.076 0 6.106 4.975 11.077 11.085 11.077zm0-2.013c-4.675 0-8.501-3.522-9.007-8.056h18.015c-.508 4.532-4.334 8.056-9.008 8.056zm24.187-6.042c6.11 0 11.086-4.97 11.086-11.076 0-6.106-4.975-11.077-11.086-11.077-6.11 0-11.085 4.971-11.085 11.077 0 6.105 4.975 11.076 11.085 11.076zm0-2.014a9.051 9.051 0 0 1-9.07-9.062 9.051 9.051 0 0 1 9.07-9.063 9.051 9.051 0 0 1 9.07 9.063 9.051 9.051 0 0 1-9.07 9.062zm-15.148-2.014H36.22a9.03 9.03 0 0 1 9.007-8.055c4.686 0 8.547 3.508 9.04 8.055z" style="text-indent:0;text-transform:none;block-progression:tb" overflow="visible" color="#000"></path></g><!----><g data-v-423bf9ae="" id="85ad4880-6bf9-42fb-8260-83014db11d0d" fill="#000000" transform="matrix(1.1361446411048648,0,0,1.1361446411048648,105.98494255807529,55.03504796107576)"><path d="M4.31 13.94C6.23 13.94 7.45 12.84 7.45 11.40C7.45 10.00 6.48 9.45 5.39 8.95L4.03 8.36C3.29 8.02 2.34 7.64 2.34 6.65C2.34 5.70 3.15 5.11 4.37 5.11C5.33 5.11 6.08 5.47 6.66 6.02L7.13 5.47C6.51 4.84 5.53 4.37 4.37 4.37C2.70 4.37 1.48 5.33 1.48 6.71C1.48 8.05 2.60 8.68 3.49 9.04L4.86 9.63C5.82 10.07 6.61 10.37 6.61 11.47C6.61 12.50 5.74 13.20 4.31 13.20C3.22 13.20 2.23 12.71 1.54 11.97L1.02 12.56C1.79 13.38 2.93 13.94 4.31 13.94ZM16.84 13.78L22.36 13.78L22.36 13.06L20.02 13.06L20.02 5.24L22.36 5.24L22.36 4.54L16.84 4.54L16.84 5.24L19.18 5.24L19.18 13.06L16.84 13.06ZM31.92 13.78L32.75 13.78L32.75 7.76C32.75 7.08 32.68 6.06 32.63 5.42L32.68 5.42L33.33 7.18L35.04 11.26L35.59 11.26L37.28 7.18L37.88 5.42L37.94 5.42C37.91 6.06 37.86 7.08 37.86 7.76L37.86 13.78L38.70 13.78L38.70 4.54L37.58 4.54L35.91 8.71L35.35 10.29L35.29 10.29L34.69 8.71L33.03 4.54L31.92 4.54ZM48.40 13.78L49.22 13.78L49.22 9.91L51.02 9.91C53.06 9.91 54.33 9.03 54.33 7.15C54.33 5.21 53.06 4.54 51.02 4.54L48.40 4.54ZM49.22 9.21L49.22 5.21L50.85 5.21C52.63 5.21 53.49 5.67 53.49 7.15C53.49 8.61 52.64 9.21 50.85 9.21ZM64.23 13.78L69.78 13.78L69.78 13.06L65.04 13.06L65.04 4.54L64.23 4.54ZM79.34 13.78L85.02 13.78L85.02 13.06L80.18 13.06L80.18 9.25L84.14 9.25L84.14 8.53L80.18 8.53L80.18 5.24L84.88 5.24L84.88 4.54L79.34 4.54ZM108.99 13.78L109.83 13.78L110.84 10.71L114.38 10.71L115.37 13.78L116.24 13.78L113.06 4.54L112.17 4.54ZM111.09 10.02L111.61 8.41C111.96 7.34 112.27 6.37 112.59 5.25L112.64 5.25C112.95 6.37 113.26 7.34 113.62 8.41L114.14 10.02ZM128.73 13.94C129.91 13.94 130.77 13.44 131.49 12.63L131.00 12.11C130.35 12.82 129.68 13.20 128.77 13.20C126.87 13.20 125.66 11.61 125.66 9.13C125.66 6.66 126.87 5.11 128.80 5.11C129.61 5.11 130.27 5.47 130.76 6.01L131.24 5.46C130.73 4.89 129.89 4.37 128.80 4.37C126.43 4.37 124.80 6.20 124.80 9.13C124.80 12.11 126.43 13.94 128.73 13.94ZM144.13 13.94C145.31 13.94 146.17 13.44 146.89 12.63L146.40 12.11C145.75 12.82 145.08 13.20 144.17 13.20C142.27 13.20 141.06 11.61 141.06 9.13C141.06 6.66 142.27 5.11 144.20 5.11C145.01 5.11 145.67 5.47 146.16 6.01L146.64 5.46C146.13 4.89 145.29 4.37 144.20 4.37C141.83 4.37 140.20 6.20 140.20 9.13C140.20 12.11 141.83 13.94 144.13 13.94ZM158.83 13.94C160.45 13.94 161.83 13.05 161.83 10.32L161.83 4.54L161.01 4.54L161.01 10.26C161.01 12.49 160.02 13.20 158.83 13.20C157.63 13.20 156.65 12.49 156.65 10.26L156.65 4.54L155.81 4.54L155.81 10.32C155.81 13.05 157.18 13.94 158.83 13.94ZM171.57 13.78L172.40 13.78L172.40 9.66L174.24 9.66L176.64 13.78L177.59 13.78L175.15 9.62C176.50 9.34 177.38 8.50 177.38 7.01C177.38 5.21 176.12 4.54 174.29 4.54L171.57 4.54ZM172.40 8.96L172.40 5.21L174.12 5.21C175.67 5.21 176.54 5.70 176.54 7.01C176.54 8.33 175.67 8.96 174.12 8.96ZM185.99 13.78L186.83 13.78L187.84 10.71L191.38 10.71L192.37 13.78L193.24 13.78L190.06 4.54L189.17 4.54ZM188.09 10.02L188.61 8.41C188.96 7.34 189.27 6.37 189.59 5.25L189.64 5.25C189.95 6.37 190.26 7.34 190.62 8.41L191.14 10.02ZM204.60 13.78L205.44 13.78L205.44 5.24L208.57 5.24L208.57 4.54L201.46 4.54L201.46 5.24L204.60 5.24ZM217.94 13.78L223.62 13.78L223.62 13.06L218.78 13.06L218.78 9.25L222.74 9.25L222.74 8.53L218.78 8.53L218.78 5.24L223.48 5.24L223.48 4.54L217.94 4.54ZM248.74 13.78L254.42 13.78L254.42 13.06L249.58 13.06L249.58 9.25L253.54 9.25L253.54 8.53L249.58 8.53L249.58 5.24L254.28 5.24L254.28 4.54L248.74 4.54ZM264.45 13.78L265.27 13.78L265.27 9.42L269.19 9.42L269.19 8.74L265.27 8.74L265.27 5.24L269.91 5.24L269.91 4.54L264.45 4.54ZM279.85 13.78L280.67 13.78L280.67 9.42L284.59 9.42L284.59 8.74L280.67 8.74L280.67 5.24L285.31 5.24L285.31 4.54L279.85 4.54ZM294.66 13.78L300.17 13.78L300.17 13.06L297.84 13.06L297.84 5.24L300.17 5.24L300.17 4.54L294.66 4.54L294.66 5.24L297.00 5.24L297.00 13.06L294.66 13.06ZM310.34 13.78L316.02 13.78L316.02 13.06L311.18 13.06L311.18 9.25L315.14 9.25L315.14 8.53L311.18 8.53L311.18 5.24L315.88 5.24L315.88 4.54L310.34 4.54ZM328.93 13.94C330.11 13.94 330.97 13.44 331.69 12.63L331.20 12.11C330.55 12.82 329.88 13.20 328.97 13.20C327.07 13.20 325.86 11.61 325.86 9.13C325.86 6.66 327.07 5.11 329.00 5.11C329.81 5.11 330.47 5.47 330.96 6.01L331.44 5.46C330.93 4.89 330.09 4.37 329.00 4.37C326.63 4.37 325.00 6.20 325.00 9.13C325.00 12.11 326.63 13.94 328.93 13.94ZM340.86 13.78L346.37 13.78L346.37 13.06L344.04 13.06L344.04 5.24L346.37 5.24L346.37 4.54L340.86 4.54L340.86 5.24L343.20 5.24L343.20 13.06L340.86 13.06ZM356.54 13.78L362.22 13.78L362.22 13.06L357.38 13.06L357.38 9.25L361.34 9.25L361.34 8.53L357.38 8.53L357.38 5.24L362.08 5.24L362.08 4.54L356.54 4.54ZM371.46 13.78L372.25 13.78L372.25 8.36C372.25 7.46 372.16 6.55 372.15 5.64L372.16 5.64L373.14 7.49L376.52 13.78L377.37 13.78L377.37 4.54L376.59 4.54L376.59 9.90C376.59 10.82 376.67 11.77 376.68 12.66L376.67 12.66L372.32 4.54L371.46 4.54ZM389.40 13.78L390.24 13.78L390.24 5.24L393.37 5.24L393.37 4.54L386.26 4.54L386.26 5.24L389.40 5.24Z"></path></g></svg>